PathFileType	4	(X/Y/Z)																																																																																																																																																																																															
DataRate	CameraRate	NumFrames	NumMarkers	Units	OrigDataRate	OrigDataStartFrame	OrigNumFrames																																																																																																																																																																																										
100	100	5	64	     mm	100	50	397																																																																																																																																																																																										
Frame#	Time	LASI			RASI			LPSI			RPSI			RTH2			RTH3			RLFC			RMFC			LTH1			LTH2			LTH3			LLFC			LMFC			RTB1			RTB2			RTB3			RLMAL			RMMAL			LTB1			LTB2			LTB3			LLMAL			LMMAL			RCAL			RTOE			RMT5			LCAL			LTOE			LMT5			LACR			RACR			CLAV			C7			LASH			LPSH			RASH			RPSH			RUA1			RUA2			RUA3			RLEL			RMEL			LUA1			LUA2			LUA3			LLEL			LMEL			RFAsuperior			RFAradius			RFAulna			LFAsuperior			LFAradius			LFAulna			RTH1			RHJC			LHJC			RKJC			LKJC			RAJC			LAJC			RSJC			LSJC			REJC			LEJC		
		X1	Y1	Z1	X2	Y2	Z2	X3	Y3	Z3	X4	Y4	Z4	X5	Y5	Z5	X6	Y6	Z6	X7	Y7	Z7	X8	Y8	Z8	X9	Y9	Z9	X10	Y10	Z10	X11	Y11	Z11	X12	Y12	Z12	X13	Y13	Z13	X14	Y14	Z14	X15	Y15	Z15	X16	Y16	Z16	X17	Y17	Z17	X18	Y18	Z18	X19	Y19	Z19	X20	Y20	Z20	X21	Y21	Z21	X22	Y22	Z22	X23	Y23	Z23	X24	Y24	Z24	X25	Y25	Z25	X26	Y26	Z26	X27	Y27	Z27	X28	Y28	Z28	X29	Y29	Z29	X30	Y30	Z30	X31	Y31	Z31	X32	Y32	Z32	X33	Y33	Z33	X34	Y34	Z34	X35	Y35	Z35	X36	Y36	Z36	X37	Y37	Z37	X38	Y38	Z38	X39	Y39	Z39	X40	Y40	Z40	X41	Y41	Z41	X42	Y42	Z42	X43	Y43	Z43	X44	Y44	Z44	X45	Y45	Z45	X46	Y46	Z46	X47	Y47	Z47	X48	Y48	Z48	X49	Y49	Z49	X50	Y50	Z50	X51	Y51	Z51	X52	Y52	Z52	X53	Y53	Z53	X54	Y54	Z54	X55	Y55	Z55	X56	Y56	Z56	X57	Y57	Z57	X58	Y58	Z58	X59	Y59	Z59	X60	Y60	Z60	X61	Y61	Z61	X62	Y62	Z62	X63	Y63	Z63	X64	Y64	Z64
																																																																																																																																																																																																	
50	0.49	629.31116	1082.39917	-358.87991	375.1655	1075.04407	-359.36295	560.46417	1126.55774	-521.26202	447.05905	1119.46289	-522.72589	340.78247	820.28491	-502.68024	333.83856	666.25934	-475.98483	335.79385	561.75879	-471.85312	450.67807	536.646	-458.53763	690.81842	955.76575	-418.73062	658.99121	806.13342	-504.45697	675.05536	670.21344	-466.20981	671.97589	551.4632	-455.00613	561.54858	520.54596	-474.22708	374.16223	406.30774	-437.04858	318.74744	370.14719	-526.31982	379.3248	220.45538	-471.5271	331.82834	119.41871	-528.95911	421.15543	130.10261	-504.42868	640.35333	440.77087	-424.54858	689.75574	342.13263	-515.47156	648.36017	227.95813	-455.15387	680.19684	124.72838	-507.91675	593.3316	130.91742	-490.86466	389.09073	97.35466	-597.06103	373.57935	76.06784	-352.33115	287.48724	52.67075	-412.85852	618.82172	97.63145	-579.88263	645.29285	79.13288	-343.61975	735.11951	43.66411	-403.84927	634.9563	1577.03333	-489.21121	343.09512	1565.89026	-469.55618	459.39703	1529.37061	-407.47909	499.56949	1580.86768	-530.72961	647.5387	1544.52234	-425.8793	663.37054	1513.77051	-546.02698	330.98557	1528.19592	-416.03909	324.15262	1496.8844	-551.91382	246.65404	1469.59277	-531.54321	185.91284	1479.71094	-479.60043	101.50014	1423.6521	-505.47003	41.50942	1386.36743	-514.94824	78.52815	1326.49048	-466.1857	734.47333	1489.87573	-532.03485	810.64166	1498.1709	-485.74039	888.65924	1454.00024	-511.6842	960.07446	1435.86816	-501.4473	926.69751	1354.49524	-480.49069	-27.02734	1397.63586	-429.55481	-59.09018	1371.90686	-253.79082	-118.13113	1368.26685	-291.46521	1015.88757	1421.88452	-433.57028	1022.08514	1370.81372	-248.21745	1090.7688	1384.03088	-265.53391	306.60923	956.92529	-413.36307	412.57416	977.075	-435.03598	587.78433	1000.94211	-442.72776	393.23596	549.20239	-465.19537	616.76224	536.00458	-464.61661	376.49188	124.76066	-516.69389	636.76422	127.8229	-499.3907	327.56909	1512.54016	-483.97646	655.45462	1529.14642	-485.95314	60.01879	1356.42896	-490.56697	943.38599	1395.1817	-490.96899
51	0.5	629.28052	1082.401	-358.98456	375.15854	1075.06702	-359.42426	560.44305	1126.53406	-521.32111	447.05017	1119.4519	-522.78326	340.78128	820.28455	-502.71182	333.82037	666.19452	-475.94074	335.73706	561.73737	-471.8103	450.66635	536.64807	-458.53229	690.81238	955.77631	-418.80917	658.94275	806.12897	-504.47467	675.06183	670.18426	-466.28381	671.98041	551.47192	-455.03561	562.14453	520.33807	-472.2399	374.33301	406.32037	-436.80536	318.76605	370.14487	-526.32501	379.36169	220.49254	-471.48544	331.82645	119.43659	-528.96198	421.15131	130.09376	-504.40549	640.32788	440.77399	-424.61386	689.76038	342.14096	-515.49762	648.37	227.93787	-455.20337	680.21173	124.71585	-507.91559	593.35864	130.92294	-490.89227	388.8884	97.34731	-596.84497	373.57565	76.06719	-352.35376	287.47366	52.64913	-412.85675	618.79669	97.63789	-579.87787	645.2915	79.11327	-343.62317	735.13147	43.6666	-403.86322	634.9411	1577.0459	-489.29636	343.06003	1565.87903	-469.57715	459.4086	1529.37549	-407.54599	499.49487	1580.82642	-530.79724	647.48792	1544.59033	-425.92398	663.3706	1513.79297	-546.07935	330.97717	1528.25391	-416.04202	324.10526	1496.90857	-551.94293	246.60103	1469.6239	-531.50067	185.89861	1479.67371	-479.59232	101.49909	1423.60254	-505.46783	41.47899	1386.29175	-514.88727	78.51962	1326.4303	-466.17819	734.42798	1489.89416	-532.10858	810.59094	1498.18799	-485.80945	888.66077	1453.9762	-511.85175	960.0249	1435.88342	-501.50449	926.6651	1354.4967	-480.55481	-26.98417	1397.44507	-429.75281	-59.09041	1371.78674	-253.83911	-118.20516	1368.11829	-291.45837	1015.83325	1421.896	-433.56961	1022.03644	1370.83362	-248.27274	1090.73193	1384.02173	-265.62006	306.57531	956.95231	-413.41825	412.54229	977.08607	-435.09469	587.75491	1000.9305	-442.79109	393.20171	549.19272	-465.1713	617.06247	535.905	-463.63776	376.48888	124.76518	-516.68373	636.78519	127.8194	-499.40393	327.54121	1512.58124	-483.99248	655.42926	1529.19165	-486.00166	59.99931	1356.36102	-490.53273	943.345	1395.19006	-491.02965
52	0.51	629.27734	1082.41553	-359.02484	375.16913	1075.0907	-359.48309	560.51935	1126.46863	-521.68512	447.09814	1119.46143	-522.91437	340.74991	820.26984	-502.74515	333.78467	666.25971	-475.98657	335.74191	561.75061	-471.8107	450.66034	536.65588	-458.57733	690.79571	955.78668	-418.85263	658.92694	806.13202	-504.49536	675.06073	670.20789	-466.29489	671.96844	551.46283	-455.07938	562.15112	520.32892	-472.21164	374.32907	406.35696	-436.81076	318.70093	370.14807	-526.31482	379.32898	220.45982	-471.54553	331.81461	119.43955	-528.96887	421.1474	130.09578	-504.41232	640.3244	440.78326	-424.66464	689.75037	342.14127	-515.51721	648.3606	227.92221	-455.25214	680.18378	124.66145	-507.77905	593.33698	130.91846	-490.87363	388.90192	97.32475	-596.85468	373.64578	76.16623	-352.56613	287.4664	52.64437	-412.87878	618.80255	97.63563	-579.93091	645.29864	79.1211	-343.63651	735.13153	43.66661	-403.86331	634.90393	1577.078	-489.33417	343.02695	1565.90088	-469.56836	459.42612	1529.38001	-407.50464	499.47345	1580.84973	-530.88	647.42291	1544.60059	-425.90918	663.35254	1513.84863	-546.13702	330.96252	1528.25439	-416.04379	324.05466	1496.95544	-551.97345	246.53703	1469.56348	-531.64722	185.85605	1479.65271	-479.53317	101.47896	1423.5293	-505.42752	41.55025	1386.19641	-514.93957	78.54812	1326.37988	-466.15128	734.4118	1489.91834	-532.17841	810.58844	1498.20703	-485.86316	888.63031	1454.00549	-511.93527	959.99219	1435.91419	-501.57758	926.65063	1354.47852	-480.67358	-27.06019	1397.33948	-429.70773	-59.08948	1371.62854	-253.75969	-118.13747	1367.99353	-291.48352	1015.79736	1421.91199	-433.64465	1022.00824	1370.82898	-248.3318	1090.73694	1384.02429	-265.69623	306.58575	956.97551	-413.51813	412.5613	977.08633	-435.17209	587.7781	1000.90904	-442.82587	393.20113	549.20325	-465.19402	617.05978	535.89587	-463.64551	376.481	124.76767	-516.6906	636.76038	127.78995	-499.32634	327.50859	1512.60492	-484.00862	655.38773	1529.22461	-486.0231	60.04918	1356.28815	-490.54543	943.32141	1395.19635	-491.12558
53	0.52	629.24402	1082.43689	-359.10666	375.16284	1075.12329	-359.56155	560.47308	1126.46777	-521.70654	447.03827	1119.46057	-522.95874	340.73886	820.25635	-502.76633	333.76358	666.2207	-475.9585	335.73688	561.77856	-471.86148	450.65057	536.65497	-458.59781	690.78827	955.76752	-418.93262	658.91785	806.12653	-504.55969	675.03571	670.2088	-466.34415	671.95258	551.47504	-455.11737	561.54431	520.53479	-474.25433	374.14938	406.3017	-437.11502	318.77722	370.13654	-526.32062	379.32873	220.45927	-471.54654	331.81457	119.43954	-528.96893	421.1467	130.11113	-504.40482	640.31299	440.78961	-424.65454	689.755	342.14941	-515.5434	648.34131	227.92744	-455.25	680.19788	124.71273	-507.92477	593.35583	130.92487	-490.89984	388.91107	97.34606	-596.87286	373.7056	76.26488	-352.69983	287.44974	52.60767	-412.90485	618.80902	97.64026	-579.92737	645.30164	79.12105	-343.63486	735.13147	43.6666	-403.86325	634.8877	1577.10803	-489.32767	342.9484	1565.88733	-469.59592	459.41278	1529.3971	-407.548	499.41296	1580.8479	-530.90607	647.47168	1544.64416	-425.97314	663.33453	1513.90442	-546.19464	330.79919	1528.27087	-416.01675	324.00699	1496.95996	-551.97107	246.55122	1469.45129	-531.74072	185.9037	1479.54517	-479.62299	101.46153	1423.48035	-505.42743	41.47324	1386.14014	-514.85156	78.57523	1326.3313	-466.12607	734.37994	1489.95264	-532.2016	810.55279	1498.22461	-485.90625	888.61114	1454.03748	-511.9667	959.97144	1435.94019	-501.61621	926.63013	1354.5177	-480.73142	-27.09793	1397.30872	-429.51761	-59.27717	1371.49512	-253.60103	-118.17037	1367.84143	-291.41205	1015.77997	1421.95056	-433.70105	1022.01508	1370.85046	-248.39967	1090.71411	1384.04968	-265.74435	306.55562	956.99097	-413.53204	412.52698	977.10099	-435.20873	587.74255	1000.92478	-442.8993	393.19373	549.21677	-465.22965	616.74844	536.00491	-464.68585	376.48064	124.77533	-516.68687	636.77686	127.8188	-499.41231	327.40309	1512.61542	-483.99391	655.40311	1529.27429	-486.08389	60.02423	1356.23572	-490.48881	943.30078	1395.22894	-491.17381
54	0.53	629.22601	1082.45569	-359.19791	375.15039	1075.12585	-359.62152	560.3609	1126.53235	-521.53204	446.98816	1119.45654	-522.97693	340.69196	820.28332	-502.76654	333.75732	666.20099	-475.98053	335.77087	561.78662	-471.85016	450.65054	536.65497	-458.59778	690.76166	955.78357	-419.01923	658.90918	806.12116	-504.62497	675.02875	670.20563	-466.41455	671.95258	551.47504	-455.11752	562.22022	520.23163	-472.01364	374.3147	406.34226	-436.84235	318.72446	370.17017	-526.3078	379.33814	220.47005	-471.47833	331.81601	119.44119	-528.95361	421.1601	130.09786	-504.41888	640.31293	440.7897	-424.65424	689.72803	342.1315	-515.52301	648.35632	227.95512	-455.24152	680.20319	124.64117	-507.7822	593.35034	130.9196	-490.87857	388.85599	97.32789	-596.8158	373.63242	76.17112	-352.55994	287.4595	52.67004	-412.84634	618.80872	97.64027	-579.92688	645.30359	79.12492	-343.62073	735.13147	43.6666	-403.86325	634.86212	1577.11926	-489.3168	342.94522	1565.88025	-469.59921	459.39362	1529.41528	-407.5575	499.33554	1580.83276	-530.94348	647.42657	1544.62085	-425.96887	663.29022	1513.92285	-546.26868	330.73386	1528.28137	-415.98422	323.91193	1496.9834	-551.91205	246.46002	1469.54358	-531.63501	185.77	1479.61401	-479.48145	101.45033	1423.44104	-505.37439	41.43661	1386.08704	-514.78711	78.55157	1326.29614	-466.06277	734.34759	1489.98718	-532.22388	810.50531	1498.24744	-485.91803	888.58887	1454.05115	-511.99103	959.92572	1435.94092	-501.69647	926.60846	1354.52222	-480.77216	-27.13324	1397.24439	-429.48053	-58.98931	1371.28491	-253.74475	-118.14758	1367.677	-291.33145	1015.74823	1421.98413	-433.7272	1022.00568	1370.83728	-248.4818	1090.71033	1384.05359	-265.83002	306.53513	956.98275	-413.5333	412.49645	977.11388	-435.2413	587.70681	1000.96272	-442.98695	393.21071	549.22079	-465.22397	617.0864	535.85333	-463.56558	376.48805	124.76952	-516.68625	636.77676	127.78039	-499.33038	327.32289	1512.63238	-483.94813	655.3584	1529.27185	-486.11877	59.99409	1356.19159	-490.42494	943.26709	1395.23157	-491.23431
